<?xml version="1.0" encoding="UTF-8"?>
<svg id="Layer_2" data-name="Layer 2" xmlns="http://www.w3.org/2000/svg" viewBox="0 0 7500 6764.86">
  <defs>
    <style>
      .cls-1 {
        fill: #000;
        stroke-width: 0px;
      }
    </style>
  </defs>
  <g id="_ÉåÉCÉÑÅ__1" data-name="ÉåÉCÉÑÅ[_1">
    <g>
      <path class="cls-1" d="M3750,6089.34c1891.14,0,3133.75-580.71,3133.75-1450.12,0-280.28-175.45-605.11-457.22-832.28-402.04-324.13-149.79-478.58,228.46-316,497.3,213.76,845.01,786.26,845.01,1266.44,0,1238.87-1450.67,2007.48-3750,2007.48S0,5996.25,0,4757.38c0-480.17,347.71-1052.68,845.01-1266.44,378.25-162.59,630.49-8.13,228.46,316-281.77,227.17-457.22,552-457.22,832.28,0,869.41,1242.61,1450.12,3133.75,1450.12Z"/>
      <g>
        <path class="cls-1" d="M2241.64,4830.78c127.87-127.36,503.29-626.6,503.29-1342.71s-613.9-1208.44-613.9-1809.97c0-393.02,96.43-682.83,195.42-859.33,172.28-307.19-105.08-370.59-245.19-198.72-113.69,139.46-514.35,556.78-514.35,1272.89s500.88,1147.28,553.06,1704.34c44.83,478.57-33.89,805.23-176.98,1093.86-127.7,257.57,82.96,354.47,298.65,139.64Z"/>
        <path class="cls-1" d="M5114.68,4830.78c127.87-127.36,503.29-626.6,503.29-1342.71s-613.9-1208.44-613.9-1809.97c0-393.02,96.43-682.83,195.42-859.33,172.28-307.19-105.08-370.59-245.19-198.72-113.69,139.46-514.35,556.78-514.35,1272.89s500.88,1147.28,553.06,1704.34c44.83,478.57-33.89,805.23-176.98,1093.86-127.7,257.57,82.96,354.47,298.65,139.64Z"/>
        <path class="cls-1" d="M3686.1,5045.96c139.71-149.27,549.89-734.41,549.89-1573.74s-670.74-1416.36-670.74-2121.39c0-492.45,84.25-749.03,213.51-1007.19,181.93-363.36-114.81-434.35-267.9-232.91-124.22,163.46-561.98,652.58-561.98,1491.9s547.41,1294.73,604.27,1997.59c44.2,546.37-70.61,1015.2-193.37,1282.07-138.98,302.16,90.64,415.47,326.31,163.67Z"/>
      </g>
    </g>
  </g>
</svg>